<?xml version="1.0" encoding="UTF-8" standalone="no"?>
<svg
   xmlns:dc="http://purl.org/dc/elements/1.1/"
   xmlns:cc="http://creativecommons.org/ns#"
   xmlns:rdf="http://www.w3.org/1999/02/22-rdf-syntax-ns#"
   xmlns:svg="http://www.w3.org/2000/svg"
   xmlns="http://www.w3.org/2000/svg"
   xmlns:sodipodi="http://sodipodi.sourceforge.net/DTD/sodipodi-0.dtd"
   xmlns:inkscape="http://www.inkscape.org/namespaces/inkscape"
   width="290"
   height="130"
   viewBox="0 0 290 130"
   class="css-1j8o68f"
   version="1.1"
   id="svg5816"
   sodipodi:docname="logo-completo-preto.svg"
   inkscape:version="0.92.4 (5da689c313, 2019-01-14)"
   inkscape:export-filename="D:\Dropbox\livesdodia\logomarca-completa-preto.png"
   inkscape:export-xdpi="165.52"
   inkscape:export-ydpi="165.52">
  <metadata
     id="metadata5820">
    <rdf:RDF>
      <cc:Work
         rdf:about="">
        <dc:format>image/svg+xml</dc:format>
        <dc:type
           rdf:resource="http://purl.org/dc/dcmitype/StillImage" />
        <dc:title></dc:title>
      </cc:Work>
    </rdf:RDF>
  </metadata>
  <sodipodi:namedview
     pagecolor="#ffffff"
     bordercolor="#666666"
     borderopacity="1"
     objecttolerance="10"
     gridtolerance="10"
     guidetolerance="10"
     inkscape:pageopacity="0"
     inkscape:pageshadow="2"
     inkscape:window-width="1858"
     inkscape:window-height="1177"
     id="namedview5818"
     showgrid="false"
     inkscape:zoom="3.9337274"
     inkscape:cx="128.79252"
     inkscape:cy="40.073744"
     inkscape:window-x="54"
     inkscape:window-y="-8"
     inkscape:window-maximized="1"
     inkscape:current-layer="svg5816"
     inkscape:pagecheckerboard="true" />
  <defs
     id="SvgjsDefs4811" />
  <g
     id="g6950"
     transform="translate(-1.432898,-1.0789501)"
     style="fill:#000005;fill-opacity:0.95473254">
    <g
       style="fill:#000005;fill-opacity:0.95473254"
       transform="matrix(3.1370638,0,0,3.1370638,124.54642,-42.877647)"
       featurekey="nameFeature-0"
       id="SvgjsG4813">
      <path
         inkscape:connector-curvature="0"
         style="fill:#000005;fill-opacity:0.95473254"
         id="path5810"
         d="M 4.12,29.72 4,30.12 C 4,30 3.96,29.84 3.96,29.68 c 0,-0.52 0.52,-1.2 0.52,-1.36 0,-0.08 -0.04,-0.2 -0.04,-0.28 0,-0.12 1.04,-3.16 1.2,-3.48 0.44,-0.44 1.4,-5.6 2,-6.32 0.2,-0.4 1.2,-3.08 1.68,-3.08 1.32,0 1.08,0.8 1.56,1.56 0.08,0.08 0.12,0.16 0.12,0.28 0,0.04 -0.88,2.44 -0.96,2.64 -0.52,1.36 -1.6,3 -1.64,4.44 -0.2,0.32 -0.24,0.4 -0.24,0.56 v 0.28 c 0,0.64 -1.04,1.96 -1.04,2.68 v 0.16 C 6.56,28.4 6.76,29.36 6.6,29.6 6.04,30.4 5.44,32.04 5.44,33 c -0.96,0.92 -1.88,6.36 -1.88,7.72 0,1.28 0.56,2.36 2.12,2.36 0.96,0 7.08,-1.2 7.6,-1.72 0.72,-0.24 1.48,-0.48 2.24,-0.48 0.04,0 0.04,0.04 0.12,0.04 -0.12,0.32 -2.04,1.28 -2.44,1.44 -2.12,0.88 -4.12,1.56 -6.48,1.56 -4.6,0 -5.56,-1.92 -5.56,-3.92 0,-1.44 0.32,-2.96 0.68,-4.36 0.24,-0.84 0.64,-1.6 0.8,-2.44 0.08,-0.4 0.72,-2.76 1.16,-2.8 v 0.32 c 0.16,-0.08 0.28,-0.76 0.32,-1 z m -0.16,3.2 c 0.32,0 0.4,-0.52 0.4,-0.68 0,-0.2 -0.12,-0.36 -0.12,-0.56 0,-0.16 0,-0.6 0.24,-0.6 l 0.04,0.04 c -0.04,0.12 -0.04,0.24 -0.08,0.32 l 0.04,0.16 c 0.08,-0.36 0.2,-0.36 0.2,-0.72 0,-0.16 -0.04,-0.36 -0.28,-0.36 0,0.16 -0.08,0.32 -0.16,0.44 -0.4,1.56 -1.8,4.48 -1.8,5.96 l 0.08,0.04 c 0.2,0 1.08,-3.6 1.52,-4.6 l 0.04,0.08 C 4,32.56 4,32.76 3.96,32.92 Z m 1.8,-5.8 -0.08,-0.16 c 0,0.52 -1.2,2.24 -1.2,3.24 l 0.08,0.08 C 5,30.28 5.2,28 5.68,27.92 5.64,27.88 5.6,27.8 5.6,27.76 c 0,-0.2 0.08,-0.48 0.16,-0.64 z M 3.6,31.48 3.56,31.4 C 3.08,32.12 3.08,33 2.72,33.76 l 0.04,0.08 c 0.48,-0.48 0.6,-1.76 0.84,-2.36 z m 2.12,-6 v -0.12 l -0.16,0.12 c -0.2,0.64 -0.4,1.28 -0.68,1.88 l 0.04,0.12 c 0.32,-0.4 0.8,-1.48 0.8,-2 z M 3.96,34.96 C 3.92,34.92 3.84,34.88 3.8,34.88 v 0 c -0.52,0.76 -1,0.56 -1,1.96 0,-0.48 0.48,-0.96 0.6,-1.48 0,0.12 0.04,0.24 0.2,0.24 0.28,0 0.32,-0.44 0.36,-0.64 z M 4.52,33 c -0.08,0.04 -0.24,0.08 -0.24,0.2 0,0 0,0.04 0.04,0.08 C 4.28,33.64 4.12,34 3.96,34.32 L 4.08,34.4 C 4.4,34.2 4.52,33.32 4.52,33 Z m 0.8,-1.12 c 0,-0.16 -0.12,-0.28 -0.2,-0.4 -0.2,0.08 -0.28,0.2 -0.28,0.36 0.04,0.16 0.24,0.28 0.4,0.28 0.04,-0.04 0.08,-0.2 0.08,-0.24 z M 4.52,33 C 4.68,32.88 4.92,32.6 4.92,32.44 4.88,32.4 4.84,32.2 4.72,32.2 c -0.2,0 -0.24,0.36 -0.24,0.48 0,0.08 0.04,0.2 0.04,0.32 z m -2.44,5.8 c 0.2,-0.08 0.28,-0.8 0.36,-1 L 2.36,37.72 C 2.2,37.84 2.08,38.6 2.08,38.8 Z m 0.84,0.64 0.12,-0.04 c 0,-0.08 -0.08,-0.16 -0.12,-0.16 -0.16,0.16 -0.2,0.44 -0.2,0.6 0,0.08 0.04,0.12 0.08,0.16 0.12,-0.2 0.12,-0.4 0.12,-0.56 z m 0.24,-1 C 3.16,38.32 3.08,38.32 3.08,38.2 L 3,38.28 3.04,38.32 C 3,38.36 2.92,38.48 2.92,38.52 L 3,38.56 c 0.04,0 0.16,-0.08 0.16,-0.12 z M 2.32,35.4 2.44,35.28 C 2.44,35.16 2.32,35.2 2.32,35.12 L 2.2,35.24 c 0,0.04 0.04,0.12 0.12,0.16 z M 6.44,25.36 c 0,-0.04 0,-0.16 -0.12,-0.16 -0.04,0.04 -0.16,0.24 -0.16,0.24 0,0.04 0.12,0.04 0.12,0.04 0,-0.04 0.08,-0.12 0.16,-0.12 z M 3.56,36.56 3.52,36.52 C 3.52,36.44 3.48,36.4 3.44,36.36 L 3.28,36.4 c 0.16,0.08 0.16,0.16 0.2,0.24 z m -1.92,1.96 -0.16,0.16 0.12,0.08 c 0.08,-0.04 0.12,-0.12 0.12,-0.2 z M 6.48,24.68 6.6,24.56 v -0.12 c -0.12,0 -0.16,0.12 -0.16,0.2 z M 2.04,39.6 2,39.8 2.12,39.76 C 2.12,39.68 2.08,39.64 2.04,39.6 Z M 6.08,25.88 6,26 6.04,26.12 C 6.08,26.04 6.12,26 6.16,26 Z m -1.4,2.08 v 0.12 C 4.72,28.04 4.72,28 4.76,27.96 Z m 1.2,1.28 V 29.16 L 5.8,29.08 c 0,0.12 0.08,0.12 0.08,0.16 z m 0.56,-3.56 0.08,-0.04 c -0.04,0 -0.08,0.04 -0.08,0.04 z m 3.64,11.92 h 0.04 c 0.12,-0.92 0.48,-2 0.48,-2.92 0,-0.28 0.24,-0.32 0.32,-0.52 L 10.8,33.88 c 0.04,-0.12 0.16,-0.24 0.32,-0.36 l -0.16,-0.28 c 0.04,-0.32 0.24,-0.28 0.32,-1 0.04,-0.16 0.24,-0.28 0.28,-0.48 l -0.12,-0.2 c 0.16,-1.2 1.84,-4.72 1.84,-5.4 0,-0.28 0.16,-0.48 0.52,-0.48 0.76,0 1.52,0.56 1.52,1.28 0,0.56 -0.52,0.96 -0.52,1.28 -0.12,0.88 -0.64,1.6 -0.88,2.44 -0.08,0.2 -0.56,1.84 -0.72,1.96 l -0.04,0.24 -0.12,0.2 c 0,0.12 0.04,0.24 0.04,0.32 0,0.12 -0.24,0 -0.24,0.2 l 0.04,-0.04 0.16,0.16 c -0.04,0.16 -0.16,0.4 -0.32,0.52 0,0.12 0.12,0.08 0.12,0.2 0,0.72 -0.4,1.64 -0.52,2.36 v 0.12 c 0,0.12 -0.2,0.28 -0.2,0.36 0,0.12 0.08,0.24 0.08,0.32 0,0.08 0,0.08 -0.04,0.12 l 0.12,0.08 c 0.4,0 1.72,-1.64 2,-2.04 0.68,-1.12 4.76,-5.32 4.88,-5.64 0.08,-0.4 0.56,-0.84 1.04,-0.84 0.08,0 0.08,0.24 0.08,0.4 v 0.24 c 0,0.12 -0.28,0.32 -0.28,0.56 0,0 0,0.04 0.04,0.08 -0.12,0.64 -4.32,4.32 -5.12,5.16 -0.4,0.4 -0.72,0.92 -1.04,1.36 l 0.04,0.08 c 0.88,0 1.96,-2.6 3,-3.12 l 0.04,0.08 c -0.04,0.36 -2,3.24 -2.4,3.72 -0.64,0.8 -1.6,1.68 -2.56,1.68 -0.6,0 -1.2,-0.32 -1.56,-0.72 v 0 c -0.4,-0.32 -0.2,-0.76 -0.36,-1.2 z m 6.08,-13.2 c -0.28,0 -0.32,-0.32 -0.84,-0.32 -0.4,0 -0.68,-0.16 -0.68,-0.6 0,-0.16 0,-0.36 0.12,-0.48 0,-0.04 -0.04,-0.08 -0.04,-0.12 0,-0.28 0.44,-0.48 0.68,-0.48 0.72,0 1.48,0.56 1.48,1.24 0,0.36 -0.32,0.76 -0.72,0.76 z m -4.4,12.56 0.04,-0.08 -0.04,-0.16 -0.12,0.12 z m -0.12,0.56 -0.04,-0.04 c -0.04,0.04 -0.08,0.04 -0.16,0.08 l 0.12,0.08 z m 6.32,0.24 c 0,-0.16 0.08,-0.32 0.08,-0.48 0,-0.12 -0.04,-0.24 -0.04,-0.4 0,-0.48 0.08,-0.84 0.2,-1.32 -0.04,-0.08 -0.04,-0.16 -0.04,-0.24 0,-0.2 0.12,-0.4 0.12,-0.64 h -0.04 l 0.04,-0.2 c -0.04,-0.08 -0.04,-0.24 -0.04,-0.44 0,-1 0.2,-2.24 0.32,-2.36 l -0.12,-0.16 0.04,-0.12 c -0.04,-0.08 -0.04,-0.2 -0.04,-0.36 0,-0.84 0.28,-2.64 0.68,-2.64 0.24,0 0.52,0 0.84,0.12 l 0.2,0.08 c 0,0 0.16,0.08 0.2,0.08 v -0.04 c 0.44,0.56 0.52,-0.08 0.52,1.24 0,0.2 -0.2,0.32 -0.2,0.52 0,0.24 0.12,0.48 0.12,0.72 0,0.16 -0.12,2.12 -0.28,2.36 0,0.04 0.04,0.16 0.04,0.2 0,0.36 -0.12,0.8 -0.12,1.16 0,0.12 0.04,0.16 0.04,0.24 l 0.2,0.12 c 0.24,0 1.6,-3.04 1.96,-3.04 0.12,0 0.16,0.08 0.16,0.2 l -0.2,0.4 0.04,0.08 c 0,0.08 -0.2,0.2 -0.32,0.24 -0.04,-0.04 -0.12,-0.04 -0.2,-0.08 -0.12,0 -0.2,0.2 -0.2,0.24 0,0.16 0.24,0.16 0.36,0.2 0.52,0 0.72,-2 1.28,-2.32 -0.04,0 -0.32,0 -0.32,-0.12 0,-0.16 0.08,-0.32 0.28,-0.36 0.12,0.08 0.2,0.24 0.4,0.24 l 0.12,-0.16 c 0,-0.08 -0.12,-0.12 -0.16,-0.16 0.04,-0.12 0.24,-0.36 0.24,-0.44 L 24,30.04 23.88,30.12 c -0.04,-0.08 -0.16,-0.16 -0.16,-0.24 0,-0.44 0.64,-0.44 0.76,-0.72 l 0.08,0.04 c -0.04,0.28 -0.08,0.48 -0.36,0.64 l 0.08,0.04 c 0.32,0 0.52,-0.4 0.6,-0.68 l 0.08,-0.24 c 0,-0.04 0.04,-0.12 0.04,-0.12 0.08,-0.28 0.32,-0.28 0.32,-0.56 0,-0.36 -0.44,-0.2 -0.44,-0.4 0,-0.16 0.12,-0.28 0.28,-0.36 l 0.12,0.04 0.08,-0.08 c -0.08,-0.04 -0.2,-0.12 -0.2,-0.2 l 0.04,-0.04 0.16,0.04 h 0.08 l 0.08,0.16 c 0,0.12 -0.16,0.2 -0.16,0.48 l 0.08,0.04 c 0.36,-0.08 0.48,-0.68 0.48,-0.96 -0.08,-0.04 -0.2,-0.2 -0.2,-0.28 l 0.08,-0.08 0.12,0.08 c 0.24,0 0.56,-0.12 0.64,-0.36 -0.16,-0.16 -0.4,0 -0.4,-0.2 0,-0.2 -0.2,-0.24 -0.32,-0.32 0.04,-0.08 0.12,-0.28 0.24,-0.28 0.08,0 0.24,0.28 0.24,0.36 v 0.12 c 0,0.08 0.16,0.12 0.2,0.12 0.16,0 0.16,-0.24 0.32,-0.32 l 0.12,0.08 -0.12,0.2 h 0.12 c 0.16,0 0.24,0.2 0.24,0.36 0,0.32 -1,1.28 -1.16,2.08 -0.2,0.84 -0.44,1.56 -1.04,2.24 0.04,0.04 0.08,0.16 0.08,0.2 0,0.28 -0.32,0.92 -0.52,1.2 -0.64,1.2 -0.68,2 -1.4,2.92 0,0.48 -0.36,0.84 -0.52,1.28 -0.32,0.72 -1.8,3.76 -2.72,3.76 -0.12,0 -0.16,-0.04 -0.24,-0.04 -0.08,0 -0.2,0.12 -0.32,0.12 -0.6,0 -1.44,-0.4 -1.44,-1.04 0,-0.48 0.04,-0.96 0.04,-1.44 z m 9.68,-14.64 v 0.12 c 0,0.52 -0.64,0.96 -0.64,1.16 0,0.2 -0.32,0.28 -0.44,0.36 L 26.48,24.6 v -0.2 c 0.08,-0.08 0.64,-0.48 0.64,-0.64 v 0 c 0.08,-0.16 0.32,-0.64 0.52,-0.64 z m -3,5.12 c 0,0.24 -0.04,0.52 -0.32,0.52 -0.12,0 -0.12,-0.04 -0.12,-0.12 0,-0.24 0.2,-0.56 0.28,-0.72 0.08,0.08 0.16,0.2 0.16,0.32 z m 2.52,-2.72 0.16,0.08 0.2,-0.08 0.04,0.16 c -0.08,0.08 -0.32,0.28 -0.4,0.28 -0.12,0 -0.12,-0.12 -0.12,-0.16 v -0.12 c 0,-0.08 0,-0.16 0.12,-0.16 z m 0.72,-0.64 V 25 c -0.12,0.16 0,0.24 -0.24,0.36 H 27.56 C 27.68,25.2 27.68,25 27.88,24.88 Z M 26.48,25.2 26.4,25 c 0.08,-0.08 0.12,-0.12 0.12,-0.16 0.04,0.04 0.08,0.12 0.08,0.2 z m 0.8,-0.08 -0.08,-0.08 c 0,-0.04 0.08,-0.08 0.2,-0.08 0,0 0.04,0.04 0.08,0.04 0,0.12 -0.08,0.12 -0.2,0.12 z m -1.6,1.04 0.12,-0.12 0.04,0.12 -0.04,0.16 z m -4,8.56 0.08,-0.08 v -0.08 l -0.2,0.12 z m 5.16,-9.56 -0.04,0.04 -0.08,-0.04 z m 11.36,6.88 0.16,0.28 c -1.04,1.32 -2.4,2.48 -3.76,3.44 -0.4,0.28 -1.68,0.8 -1.76,1.2 l 0.2,0.08 -0.32,0.24 0.04,0.04 c 0.52,-0.12 0.8,-0.48 1.24,-0.68 l 0.48,0.2 C 34.32,37 34.08,37.2 33.8,37.36 l 0.16,0.12 c -0.36,0.2 -0.68,0.44 -1.04,0.68 -0.24,0.16 -2.52,0.96 -2.76,0.96 -2.28,0 -4.12,-1.12 -4.12,-2.8 0,-1.2 0.08,-2.8 0.72,-3.88 -0.12,0.12 0.56,-0.68 0.56,-1.24 0,-1.2 2.8,-4.4 3.6,-5.28 0.6,-0.68 1.4,-0.88 2.36,-0.88 1.52,0 2.72,1.12 2.72,2.48 0,2 -0.76,1.68 -1,2.48 -0.48,1.48 -3.36,2.84 -4.96,2.84 -0.24,0 -0.44,-0.04 -0.68,-0.04 -0.56,0 -0.72,1.76 -1,1.96 v 0.16 c 0,0.44 -0.12,1.44 -0.12,1.8 0,0.4 0,1.56 0.64,1.56 3.92,0 5.52,-4.12 8.32,-5.44 0.32,-0.16 0.96,-0.48 1,-0.8 z M 29.6,31.6 v 0.16 c 0,0.08 0,0.32 0.16,0.32 0.2,0 0.96,-0.4 1.16,-0.52 0.44,0 3.12,-2.04 3.16,-2.36 0.08,-0.48 0.36,-0.96 0.36,-1.44 0,-0.32 -0.08,-1.76 -0.64,-1.76 -1.2,0 -2.68,3.56 -3.4,4.08 -0.16,0.48 -0.44,1.16 -0.8,1.52 z m 5.52,-4.16 c -0.12,0 -0.6,0.84 -0.6,0.96 0,0.12 0.04,0.28 0.16,0.28 0.24,-0.32 0.44,-0.76 0.52,-1.12 l 0.04,-0.08 z m -8.36,6.76 c 0.04,-0.2 0.16,-0.44 0.28,-0.6 0,-0.04 0,-0.2 -0.08,-0.2 -0.08,0 -0.2,0.52 -0.28,0.6 0,0.08 0,0.16 0.08,0.2 z m 6.32,3.48 -0.04,0.04 c 0.04,0 0.08,0.04 0.08,0.04 0.16,0 0.44,-0.2 0.52,-0.24 L 33.6,37.44 c -0.28,0 -0.32,0.24 -0.52,0.24 z m 4.08,-5.08 v -0.04 c 0.16,-0.16 0.4,-0.28 0.56,-0.44 -0.04,0.24 -0.36,0.44 -0.56,0.48 z M 26.8,35.4 c 0,-0.04 0.12,-0.16 0.12,-0.2 0,-0.04 0,-0.12 -0.04,-0.16 -0.16,0 -0.2,0.16 -0.2,0.24 0,0.08 0.08,0.12 0.12,0.12 z m 0.4,-2.48 0.12,-0.16 -0.04,-0.08 -0.16,0.08 v 0.2 z m -0.52,1.64 c 0,-0.04 -0.08,-0.16 -0.08,-0.2 l -0.04,0.16 c 0,0.08 0,0.12 0.04,0.2 0.04,-0.04 0.08,-0.08 0.08,-0.16 z m 1.56,-4.04 c 0,-0.04 -0.04,-0.04 -0.04,-0.08 l -0.16,0.08 0.04,0.12 z m -0.12,-0.2 C 28.2,30.28 28.2,30.2 28.24,30.16 L 28.2,30.08 c -0.08,0.08 -0.12,0.12 -0.16,0.24 z m -0.76,4.6 0.12,-0.12 -0.12,-0.04 z M 38,32 v 0.04 c -0.08,0.04 -0.2,0.04 -0.28,0.08 C 37.88,32.04 37.8,32 38,32 Z m -11.44,3.12 h 0.04 c 0,-0.04 -0.04,-0.12 -0.08,-0.16 l -0.04,0.16 z m 1.76,-2.16 v -0.2 c -0.04,0.08 -0.08,0.12 -0.08,0.24 z m 0.16,-2.32 H 28.4 l 0.04,0.08 c 0.04,-0.04 0.08,-0.04 0.08,-0.08 z m -1.4,2.56 h 0.04 l -0.04,-0.04 h 0.04 l -0.04,-0.04 z m 12.8,-2.56 c 0,0.64 0.2,1.96 0.8,2.52 0.24,0.28 1.16,1.16 1.6,1.16 0.2,0 7.88,-5.08 8.84,-5.76 -0.16,0.16 -0.6,0.6 -0.68,0.8 h 0.04 l -0.88,0.72 c 0.36,-0.28 1.04,-0.76 1.08,-0.76 -0.08,1 -7.4,5.04 -7.72,5.84 0.24,0.28 0.68,1.08 0.8,1.4 0.28,0.36 0.76,0.84 0.76,1.28 0,0.16 -0.04,0.24 -0.08,0.32 l 0.08,0.24 c -0.04,0.36 -0.24,0.84 -0.64,1 h 0.04 c -0.32,0.2 -0.56,0.52 -0.76,0.84 h 0.04 c -0.6,0.2 -1.44,1.12 -1.76,1.2 l 0.04,-0.04 c -0.72,0.6 -2,1.24 -3,1.24 -0.4,0 -0.96,-0.08 -1.2,-0.36 h 0.04 c -0.16,-0.2 -0.48,-0.48 -0.48,-0.76 0,-1.64 1,-1.76 1.2,-2.4 0.08,-0.4 0.44,-0.68 0.68,-1.04 0.32,-0.48 0.44,-0.88 0.84,-1.32 0.32,-0.36 1.36,-1.2 1.36,-1.68 0,-0.32 -0.52,-0.56 -0.72,-0.76 -0.4,-0.4 -1.28,-1.92 -1.52,-1.92 h -0.04 c -0.08,-0.6 -0.48,-1.12 -0.48,-2.08 0,-0.52 0.04,-1.6 0.4,-2 L 38.52,28.2 c 0.16,-1.56 0.6,-1.08 0.68,-1.6 0.04,-0.44 1.72,-2.52 2.2,-2.52 l 0.16,0.08 c 1.12,0 0.68,-0.56 2.04,-0.56 1.04,0 1.88,0.04 2.64,0.68 0.88,0.72 0.48,1 1.04,1.56 L 47.2,26 l 0.12,0.2 c -0.24,1.08 -0.48,2.96 -1.04,3.48 -0.6,0.6 -1.04,0.68 -1.76,0.96 -0.28,0 -0.88,-0.4 -0.88,-0.68 0,-0.08 0.08,-0.16 0.12,-0.2 l -0.04,-0.08 c 0.08,-0.48 0.28,-0.64 0.48,-1 v -0.12 c 0.08,-0.6 0.64,-1.24 0.68,-1.84 h -0.04 c 0.08,-0.2 0.12,-0.4 0.12,-0.64 0,-0.56 -0.36,-0.8 -0.44,-1.2 v 0 C 44.4,24.76 44.16,24.4 44,24.4 c -0.24,0 -1.08,0.8 -1.4,0.96 -0.36,0.12 -1.68,2.44 -2.16,2.88 l 0.04,0.04 c -0.16,0.28 -0.6,1.72 -0.6,2.36 z m 2.72,6.88 c -0.08,-0.24 -0.76,-1.48 -1,-1.48 -0.28,0 -0.64,1.16 -1.04,1.48 l 0.12,-0.04 c -0.04,0.28 -0.2,1.56 -0.72,1.56 l 0.08,0.04 c -0.08,0.48 -0.2,0.12 -0.2,0.92 0,0.12 -0.24,0.32 -0.24,0.44 0,0.04 0.08,0.08 0.16,0.08 0.56,-0.52 1.36,-1.04 1.84,-1.64 l -0.04,0.08 c 0,0 0.88,-0.8 1.04,-1.44 z m -1.48,-2.24 c -0.24,0.08 -0.4,0.68 -0.44,0.88 -0.2,0.2 -0.48,0.4 -0.72,0.56 -0.08,0.76 -1.04,1.28 -1.04,2.08 L 39,38.96 c 0.36,-0.04 0.96,-1.48 1.04,-1.48 v 0.04 c 0.28,-1.24 1.16,-0.88 1.32,-1.6 -0.12,-0.2 0,-0.48 -0.24,-0.64 z m -1.44,6.24 0.12,0.04 1.04,-0.72 v 0.04 c 0.12,-0.2 0.36,-0.12 0.52,-0.44 L 41.32,40.4 c -0.36,0 -1.36,0.88 -1.64,1.12 z M 39.28,41 39.4,41.04 c 0.12,0 0.2,-0.16 0.2,-0.24 -0.16,0 -0.24,0.04 -0.32,0.2 z m 4.64,-7.24 c 0.4,-0.24 0.76,-0.44 1.16,-0.68 -0.4,0.24 -0.76,0.44 -1.16,0.68 z m -4.24,7.76 c -0.04,0 -0.08,0 -0.12,0.04 0.04,0 0.08,0 0.12,-0.04 z m 1.92,-2.64 0.08,-0.08 c 0,0.04 -0.04,0.08 -0.08,0.08 z" />
    </g>
    <g
       style="fill:#000005;fill-opacity:0.95473254"
       transform="matrix(1.4811018,0,0,1.4811018,142.27136,97.56635)"
       featurekey="sloganFeature-0"
       id="SvgjsG4814">
      <path
         inkscape:connector-curvature="0"
         style="fill:#000005;fill-opacity:0.95473254"
         id="path5813"
         d="M 1.8262,20 V 5.889 h 5.1074 c 4.502,0 6.7285,2.832 6.7285,7.0508 0,4.2285 -2.2266,7.0605 -6.7285,7.0605 H 1.8262 Z m 2.9297,-2.5879 h 2.0313 c 2.5977,0 3.7891,-1.6211 3.7891,-4.4727 0,-2.8516 -1.1914,-4.4727 -3.7891,-4.4727 H 4.7559 v 8.9453 z m 20.624987,2.78321 c -4.1504,0 -7.2168,-2.832 -7.2168,-7.2559 0,-4.4336 3.066401,-7.2461 7.2168,-7.2461 4.1406,0 7.207,2.8125 7.207,7.2461 0,4.4238 -3.0664,7.2559 -7.207,7.2559 z m 0,-2.68551 c 2.4316,0 4.2969,-1.709 4.2969,-4.5703 0,-2.8516 -1.8652,-4.5508 -4.2969,-4.5508 -2.4317,0 -4.2969,1.6992 -4.2969,4.5508 0,2.8613 1.8652,4.5703 4.2969,4.5703 z M 45.927762,20 V 5.889 h 5.1074 c 4.502,0 6.7285,2.832 6.7285,7.0508 0,4.2285 -2.2266,7.0605 -6.7285,7.0605 h -5.1074 z m 2.9297,-2.5879 h 2.0313 c 2.597701,0 3.7891,-1.6211 3.7891,-4.4727 0,-2.8516 -1.1914,-4.4727 -3.7891,-4.4727 h -2.0313 V 17.412 Z M 63.23245,20 V 5.889 h 2.9297 V 20 Z m 18.740675,0 -1.0254,-2.9102 h -5.9277 L 73.994625,20 h -2.998 l 5.1953,-14.111 h 3.584 L 84.971225,20 h -2.998 z m -6.0942,-5.3613 h 4.209 l -2.0996,-5.9863 z" />
    </g>
  </g>
  <g
     style="fill:#000005;fill-opacity:0.95473254"
     id="SvgjsG6184"
     featurekey="symbolFeature-0"
     transform="matrix(0.86717156,0,0,0.86717156,6.5197478,10.47662)">
    <g
       id="g6404"
       style="fill:#000005;fill-opacity:0.95473254">
      <path
         inkscape:connector-curvature="0"
         d="m 54.301269,64.665955 c -7.94049,0 -15.376953,4.085022 -19.893066,10.927856 -0.608398,0.921753 -0.354004,2.162048 0.567871,2.770447 0.92334,0.611328 2.162598,0.355408 2.770996,-0.567383 3.773438,-5.717773 9.961914,-9.13092 16.554199,-9.13092 6.85254,0 13.176209,3.631958 16.914551,9.713928 0.377991,0.615173 1.03418,0.953125 1.706055,0.953125 0.357422,0 0.718689,-0.0957 1.044922,-0.295899 0.941406,-0.579101 1.23529,-1.810547 0.657226,-2.751037 C 70.151367,69.009766 62.554199,64.665955 54.301269,64.665955 Z"
         id="path6402"
         style="fill:#000005;fill-opacity:0.95473254" />
    </g>
    <g
       id="g6408"
       style="fill:#000005;fill-opacity:0.95473254">
      <path
         inkscape:connector-curvature="0"
         d="m 54.206482,54 c -10.377381,0 -19.966309,4.85791 -26.308106,13.329102 -0.662109,0.883789 -0.481872,2.137695 0.402405,2.798767 0.884339,0.664123 2.138245,0.483398 2.799805,-0.402283 C 36.679687,62.273865 45.101624,58 54.206482,58 c 9.330139,0 18.173401,4.666504 23.655823,12.482361 0.389709,0.554748 1.009765,0.851623 1.639709,0.851623 0.396362,0 0.796753,-0.117187 1.146362,-0.362304 0.904297,-0.634766 1.123108,-1.881897 0.489319,-2.786194 C 74.906311,59.302673 64.838867,54 54.206482,54 Z"
         id="path6406"
         style="fill:#000005;fill-opacity:0.95473254" />
    </g>
    <g
       id="g6412"
       style="fill:#000005;fill-opacity:0.95473254">
      <path
         inkscape:connector-curvature="0"
         d="m 54.393982,75.333008 c -5.685974,0 -10.869568,3.311462 -13.527283,8.641601 -0.492676,0.988282 -0.09082,2.189453 0.897522,2.682557 0.989197,0.492248 2.188904,0.0918 2.682556,-0.8974 1.976136,-3.963867 5.788147,-6.426758 9.947205,-6.426758 4.328735,0 8.209534,2.617187 10.127502,6.830078 0.335389,0.736328 1.061524,1.171875 1.82129,1.171875 0.277343,-9.77e-4 0.559509,-0.05859 0.828125,-0.180664 1.004882,-0.458008 1.449218,-1.643616 0.99121,-2.649414 -2.576233,-5.657227 -7.851623,-9.171875 -13.768127,-9.171875 z"
         id="path6410"
         style="fill:#000005;fill-opacity:0.95473254" />
    </g>
    <g
       id="g6418"
       style="fill:#000005;fill-opacity:0.95473254">
      <g
         id="g6416"
         style="fill:#000005;fill-opacity:0.95473254">
        <path
           inkscape:connector-curvature="0"
           d="M 109.86127,29.656677 C 100.83197,27.703064 90.147522,27 79.436523,27 c -8.625,0 -17.264648,0.456482 -25.063537,1.083008 L 75.442383,6.1353149 c 0.765625,-0.796936 0.739197,-2.0630493 -0.05762,-2.8282471 -0.796875,-0.7650757 -2.0625,-0.7387085 -2.827149,0.057617 L 48.557065,28.364685 c -0.07416,0.0777 -0.135193,0.163086 -0.194763,0.248596 -1.545411,0.147888 -3.043885,0.299317 -4.485291,0.452576 -0.09235,-0.253845 -0.234924,-0.493591 -0.434143,-0.701172 l -24,-25.0000002 C 18.678223,2.5697631 17.412109,2.5429687 16.614685,3.3070678 15.817871,4.0722656 15.792481,5.3383788 16.557068,6.1353149 L 39.086426,29.603455 c -9.008301,1.0625 -14.876038,2.046936 -14.876038,2.046936 C -0.3842773,35.749512 0.0269165,49.590759 0.0269165,49.590759 -0.3842773,60.333984 4.0576172,99.424805 4.0576172,99.424805 9.0957031,119.35938 30.256775,121.35248 30.256775,121.35248 37.600586,122.63379 51.236267,123 64.424805,123 82,123 98.777283,122.34961 98.777283,122.34961 c 15.115297,0 20.153377,-13.9541 20.153377,-13.9541 C 128,90.456055 128,46.933594 128,46.933594 128,33.499512 109.86127,29.656677 109.86127,29.656677 Z M 97.189514,98.176758 c 0,0 -2.837036,13.629822 -19.84674,15.577152 0,0 -19.949707,1.24609 -31.805176,1.24609 -2.967285,0 -5.426331,-0.0781 -6.939881,-0.27344 0,0 -0.189514,0.01 -0.534729,0.01 -3.106872,0 -18.891601,-0.78809 -23.998474,-16.559512 0,0 -5.0640257,-23.101563 -5.0650022,-38.658692 0,-2.237304 0.2915039,-4.211486 0.8256836,-5.959472 2.2050786,-7.228516 8.6372066,-10.613831 16.4896856,-12.819824 0.001,0 13.310607,-3.738282 33.144592,-3.73877 4.958557,0 10.321838,0.233398 15.990723,0.817383 13.875976,1.430176 24.698184,7.735779 24.54779,22.6875 -0.0957,9.822204 -0.822205,31.050781 -2.808472,37.671875 z M 108.5,91.333984 c -2.30182,0 -4.16699,-1.865173 -4.16699,-4.166992 C 104.33301,84.865173 106.19818,83 108.5,83 c 2.30182,0 4.16699,1.865173 4.16699,4.166992 0,2.301819 -1.86517,4.166992 -4.16699,4.166992 z m 2,-14 c -2.30182,0 -4.16699,-1.865173 -4.16699,-4.166992 C 106.33301,70.865173 108.19818,69 110.5,69 c 2.30182,0 4.16699,1.865173 4.16699,4.166992 0,2.301819 -1.86517,4.166992 -4.16699,4.166992 z m 3.5,-14.66748 h -6 c -1.10449,0 -2,-0.895508 -2,-2 0,-1.104492 0.89551,-2 2,-2 h 6 c 1.10449,0 2,0.895508 2,2 0,1.104492 -0.89551,2 -2,2 z"
           id="path6414"
           style="fill:#000005;fill-opacity:0.95473254" />
      </g>
    </g>
    <g
       id="g6422"
       style="fill:#000005;fill-opacity:0.95473254">
      <ellipse
         cx="54.498047"
         cy="90.666992"
         rx="5.2626953"
         ry="5.3330078"
         id="ellipse6420"
         style="fill:#000005;fill-opacity:0.95473254" />
    </g>
  </g>
</svg>
