<?xml version="1.0" encoding="UTF-8" standalone="no"?>
<svg
   xmlns:dc="http://purl.org/dc/elements/1.1/"
   xmlns:cc="http://creativecommons.org/ns#"
   xmlns:rdf="http://www.w3.org/1999/02/22-rdf-syntax-ns#"
   xmlns:svg="http://www.w3.org/2000/svg"
   xmlns="http://www.w3.org/2000/svg"
   xmlns:sodipodi="http://sodipodi.sourceforge.net/DTD/sodipodi-0.dtd"
   xmlns:inkscape="http://www.inkscape.org/namespaces/inkscape"
   width="120"
   height="115"
   viewBox="0 0 120 115"
   class="css-1j8o68f"
   version="1.1"
   id="svg5816"
   sodipodi:docname="logo-apenas-tv-branco.svg"
   inkscape:version="0.92.4 (5da689c313, 2019-01-14)">
  <metadata
     id="metadata5820">
    <rdf:RDF>
      <cc:Work
         rdf:about="">
        <dc:format>image/svg+xml</dc:format>
        <dc:type
           rdf:resource="http://purl.org/dc/dcmitype/StillImage" />
        <dc:title></dc:title>
      </cc:Work>
    </rdf:RDF>
  </metadata>
  <sodipodi:namedview
     pagecolor="#ffffff"
     bordercolor="#666666"
     borderopacity="1"
     objecttolerance="10"
     gridtolerance="10"
     guidetolerance="10"
     inkscape:pageopacity="0"
     inkscape:pageshadow="2"
     inkscape:window-width="1858"
     inkscape:window-height="1177"
     id="namedview5818"
     showgrid="false"
     inkscape:zoom="1.9668637"
     inkscape:cx="-2.0697929"
     inkscape:cy="-9.8939716"
     inkscape:window-x="54"
     inkscape:window-y="-8"
     inkscape:window-maximized="1"
     inkscape:current-layer="svg5816"
     inkscape:pagecheckerboard="true"
     fit-margin-top="0"
     fit-margin-left="0"
     fit-margin-right="0"
     fit-margin-bottom="0" />
  <defs
     id="SvgjsDefs4811" />
  <g
     style="fill:#ffffff;fill-opacity:1"
     id="SvgjsG6184"
     featurekey="symbolFeature-0"
     transform="matrix(0.92806655,0,0,0.92806655,0.60372543,-0.85215064)">
    <g
       id="g6404"
       style="fill:#ffffff;fill-opacity:1">
      <path
         inkscape:connector-curvature="0"
         d="m 54.301269,64.665955 c -7.94049,0 -15.376953,4.085022 -19.893066,10.927856 -0.608398,0.921753 -0.354004,2.162048 0.567871,2.770447 0.92334,0.611328 2.162598,0.355408 2.770996,-0.567383 3.773438,-5.717773 9.961914,-9.13092 16.554199,-9.13092 6.85254,0 13.176209,3.631958 16.914551,9.713928 0.377991,0.615173 1.03418,0.953125 1.706055,0.953125 0.357422,0 0.718689,-0.0957 1.044922,-0.295899 0.941406,-0.579101 1.23529,-1.810547 0.657226,-2.751037 C 70.151367,69.009766 62.554199,64.665955 54.301269,64.665955 Z"
         id="path6402"
         style="fill:#ffffff;fill-opacity:1" />
    </g>
    <g
       id="g6408"
       style="fill:#ffffff;fill-opacity:1">
      <path
         inkscape:connector-curvature="0"
         d="m 54.206482,54 c -10.377381,0 -19.966309,4.85791 -26.308106,13.329102 -0.662109,0.883789 -0.481872,2.137695 0.402405,2.798767 0.884339,0.664123 2.138245,0.483398 2.799805,-0.402283 C 36.679687,62.273865 45.101624,58 54.206482,58 c 9.330139,0 18.173401,4.666504 23.655823,12.482361 0.389709,0.554748 1.009765,0.851623 1.639709,0.851623 0.396362,0 0.796753,-0.117187 1.146362,-0.362304 0.904297,-0.634766 1.123108,-1.881897 0.489319,-2.786194 C 74.906311,59.302673 64.838867,54 54.206482,54 Z"
         id="path6406"
         style="fill:#ffffff;fill-opacity:1" />
    </g>
    <g
       id="g6412"
       style="fill:#ffffff;fill-opacity:1">
      <path
         inkscape:connector-curvature="0"
         d="m 54.393982,75.333008 c -5.685974,0 -10.869568,3.311462 -13.527283,8.641601 -0.492676,0.988282 -0.09082,2.189453 0.897522,2.682557 0.989197,0.492248 2.188904,0.0918 2.682556,-0.8974 1.976136,-3.963867 5.788147,-6.426758 9.947205,-6.426758 4.328735,0 8.209534,2.617187 10.127502,6.830078 0.335389,0.736328 1.061524,1.171875 1.82129,1.171875 0.277343,-9.77e-4 0.559509,-0.05859 0.828125,-0.180664 1.004882,-0.458008 1.449218,-1.643616 0.99121,-2.649414 -2.576233,-5.657227 -7.851623,-9.171875 -13.768127,-9.171875 z"
         id="path6410"
         style="fill:#ffffff;fill-opacity:1" />
    </g>
    <g
       id="g6418"
       style="fill:#ffffff;fill-opacity:1">
      <g
         id="g6416"
         style="fill:#ffffff;fill-opacity:1">
        <path
           inkscape:connector-curvature="0"
           d="M 109.86127,29.656677 C 100.83197,27.703064 90.147522,27 79.436523,27 c -8.625,0 -17.264648,0.456482 -25.063537,1.083008 L 75.442383,6.1353149 c 0.765625,-0.796936 0.739197,-2.0630493 -0.05762,-2.8282471 -0.796875,-0.7650757 -2.0625,-0.7387085 -2.827149,0.057617 L 48.557065,28.364685 c -0.07416,0.0777 -0.135193,0.163086 -0.194763,0.248596 -1.545411,0.147888 -3.043885,0.299317 -4.485291,0.452576 -0.09235,-0.253845 -0.234924,-0.493591 -0.434143,-0.701172 l -24,-25.0000002 C 18.678223,2.5697631 17.412109,2.5429687 16.614685,3.3070678 15.817871,4.0722656 15.792481,5.3383788 16.557068,6.1353149 L 39.086426,29.603455 c -9.008301,1.0625 -14.876038,2.046936 -14.876038,2.046936 C -0.3842773,35.749512 0.0269165,49.590759 0.0269165,49.590759 -0.3842773,60.333984 4.0576172,99.424805 4.0576172,99.424805 9.0957031,119.35938 30.256775,121.35248 30.256775,121.35248 37.600586,122.63379 51.236267,123 64.424805,123 82,123 98.777283,122.34961 98.777283,122.34961 c 15.115297,0 20.153377,-13.9541 20.153377,-13.9541 C 128,90.456055 128,46.933594 128,46.933594 128,33.499512 109.86127,29.656677 109.86127,29.656677 Z M 97.189514,98.176758 c 0,0 -2.837036,13.629822 -19.84674,15.577152 0,0 -19.949707,1.24609 -31.805176,1.24609 -2.967285,0 -5.426331,-0.0781 -6.939881,-0.27344 0,0 -0.189514,0.01 -0.534729,0.01 -3.106872,0 -18.891601,-0.78809 -23.998474,-16.559512 0,0 -5.0640257,-23.101563 -5.0650022,-38.658692 0,-2.237304 0.2915039,-4.211486 0.8256836,-5.959472 2.2050786,-7.228516 8.6372066,-10.613831 16.4896856,-12.819824 0.001,0 13.310607,-3.738282 33.144592,-3.73877 4.958557,0 10.321838,0.233398 15.990723,0.817383 13.875976,1.430176 24.698184,7.735779 24.54779,22.6875 -0.0957,9.822204 -0.822205,31.050781 -2.808472,37.671875 z M 108.5,91.333984 c -2.30182,0 -4.16699,-1.865173 -4.16699,-4.166992 C 104.33301,84.865173 106.19818,83 108.5,83 c 2.30182,0 4.16699,1.865173 4.16699,4.166992 0,2.301819 -1.86517,4.166992 -4.16699,4.166992 z m 2,-14 c -2.30182,0 -4.16699,-1.865173 -4.16699,-4.166992 C 106.33301,70.865173 108.19818,69 110.5,69 c 2.30182,0 4.16699,1.865173 4.16699,4.166992 0,2.301819 -1.86517,4.166992 -4.16699,4.166992 z m 3.5,-14.66748 h -6 c -1.10449,0 -2,-0.895508 -2,-2 0,-1.104492 0.89551,-2 2,-2 h 6 c 1.10449,0 2,0.895508 2,2 0,1.104492 -0.89551,2 -2,2 z"
           id="path6414"
           style="fill:#ffffff;fill-opacity:1" />
      </g>
    </g>
    <g
       id="g6422"
       style="fill:#ffffff;fill-opacity:1">
      <ellipse
         cx="54.498047"
         cy="90.666992"
         rx="5.2626953"
         ry="5.3330078"
         id="ellipse6420"
         style="fill:#ffffff;fill-opacity:1" />
    </g>
  </g>
</svg>
